<?xml version="1.0" encoding="UTF-8" standalone="no"?>
<!-- Created with Inkscape (http://www.inkscape.org/) -->

<svg
   inkscape:export-ydpi="193.45634"
   inkscape:export-xdpi="193.45634"
   inkscape:export-filename="icon_new.png"
   sodipodi:docname="icon_original.svg"
   xml:space="preserve"
   id="svg20359"
   version="1.1"
   viewBox="0 0 250 250"
   height="250mm"
   width="250mm"
   inkscape:version="1.2.2 (b0a8486541, 2022-12-01)"
   xmlns:inkscape="http://www.inkscape.org/namespaces/inkscape"
   xmlns:sodipodi="http://sodipodi.sourceforge.net/DTD/sodipodi-0.dtd"
   xmlns:xlink="http://www.w3.org/1999/xlink"
   xmlns="http://www.w3.org/2000/svg"
   xmlns:svg="http://www.w3.org/2000/svg"><sodipodi:namedview
     id="namedview20361"
     pagecolor="#ffffff"
     bordercolor="#000000"
     borderopacity="0"
     inkscape:showpageshadow="2"
     inkscape:pageopacity="0"
     inkscape:pagecheckerboard="true"
     inkscape:deskcolor="#d1d1d1"
     inkscape:document-units="mm"
     showgrid="false"
     showborder="false"
     shape-rendering="auto"
     inkscape:zoom="0.52347032"
     inkscape:cx="515.78856"
     inkscape:cy="442.24093"
     inkscape:window-width="1920"
     inkscape:window-height="1031"
     inkscape:window-x="0"
     inkscape:window-y="25"
     inkscape:window-maximized="1"
     inkscape:current-layer="layer1" /><defs
     id="defs20356"><linearGradient
       inkscape:collect="always"
       id="linearGradient1092"><stop
         style="stop-color:#00b078;stop-opacity:1"
         offset="0"
         id="stop1088" /><stop
         id="stop1096"
         offset="0.69536877"
         style="stop-color:#00b078;stop-opacity:0.78039216" /><stop
         style="stop-color:#00b078;stop-opacity:0"
         offset="1"
         id="stop1090" /></linearGradient><linearGradient
       inkscape:collect="always"
       id="linearGradient1080"><stop
         style="stop-color:#0016ea;stop-opacity:1"
         offset="0"
         id="stop1076" /><stop
         style="stop-color:#1c3cfd;stop-opacity:0"
         offset="1"
         id="stop1078" /></linearGradient><linearGradient
       inkscape:collect="always"
       id="linearGradient1070"><stop
         style="stop-color:#cbfbfe;stop-opacity:1"
         offset="0"
         id="stop1066" /><stop
         style="stop-color:#d0fbfe;stop-opacity:0;"
         offset="1"
         id="stop1068" /></linearGradient><linearGradient
       inkscape:collect="always"
       id="linearGradient1053"><stop
         style="stop-color:#9dbbfe;stop-opacity:1"
         offset="0"
         id="stop1049" /><stop
         style="stop-color:#ffffff;stop-opacity:1"
         offset="1"
         id="stop1051" /></linearGradient><linearGradient
       inkscape:collect="always"
       id="linearGradient1029"><stop
         style="stop-color:#d4e2fd;stop-opacity:0.51418442"
         offset="0"
         id="stop1025" /><stop
         style="stop-color:#d4e4fd;stop-opacity:0.89007092"
         offset="1"
         id="stop1027" /></linearGradient><linearGradient
       inkscape:collect="always"
       id="linearGradient1021"><stop
         style="stop-color:#8eecfd;stop-opacity:1"
         offset="0"
         id="stop1017" /><stop
         style="stop-color:#1667fd;stop-opacity:1"
         offset="1"
         id="stop1019" /></linearGradient><linearGradient
       inkscape:collect="always"
       id="linearGradient1008"><stop
         style="stop-color:#66d5ff;stop-opacity:1"
         offset="0"
         id="stop1004" /><stop
         style="stop-color:#b4ddfd;stop-opacity:1"
         offset="1"
         id="stop1006" /></linearGradient><linearGradient
       inkscape:collect="always"
       id="linearGradient996"><stop
         style="stop-color:#ffffff;stop-opacity:1"
         offset="0"
         id="stop992" /><stop
         style="stop-color:#ffffff;stop-opacity:1"
         offset="1"
         id="stop994" /></linearGradient><filter
       id="deepin-image-viewer-a"
       width="1.303"
       height="1.325"
       x="-0.17200001"
       y="-0.14"
       filterUnits="objectBoundingBox"><feOffset
         dy="2"
         in="SourceAlpha"
         result="shadowOffsetOuter1"
         id="feOffset2" /><feGaussianBlur
         in="shadowOffsetOuter1"
         result="shadowBlurOuter1"
         stdDeviation="3"
         id="feGaussianBlur4" /><feComposite
         in="shadowBlurOuter1"
         in2="SourceAlpha"
         operator="out"
         result="shadowBlurOuter1"
         id="feComposite6" /><feColorMatrix
         in="shadowBlurOuter1"
         result="shadowMatrixOuter1"
         values="0 0 0 0 0   0 0 0 0 0   0 0 0 0 0  0 0 0 0.2 0"
         id="feColorMatrix8" /><feMerge
         id="feMerge14"><feMergeNode
           in="shadowMatrixOuter1"
           id="feMergeNode10" /><feMergeNode
           in="SourceGraphic"
           id="feMergeNode12" /></feMerge></filter><linearGradient
       id="deepin-image-viewer-b"
       x1="0.5"
       x2="0.5"
       y1="0"
       y2="1"><stop
         offset="0%"
         stop-color="#FFF"
         id="stop17" /><stop
         offset="100%"
         stop-color="#D6D9ED"
         id="stop19" /></linearGradient><linearGradient
       id="deepin-image-viewer-d"
       x1="0.5"
       x2="0.5"
       y1="1"
       y2="0.01926"><stop
         offset="0%"
         stop-color="#4B7BCF"
         id="stop22" /><stop
         offset="100%"
         stop-color="#3A2EC8"
         id="stop24" /></linearGradient><rect
       id="deepin-image-viewer-c"
       width="98.25"
       height="67.5"
       x="0.245"
       y="0.191"
       rx="8" /><linearGradient
       id="deepin-image-viewer-f"
       x1="0.49803001"
       x2="0.41314"
       y1="0.35880002"
       y2="0.68829"><stop
         offset="0%"
         stop-color="#40E2E8"
         id="stop28" /><stop
         offset="47.667%"
         stop-color="#2A7ECA"
         id="stop30" /><stop
         offset="100%"
         stop-color="#332075"
         id="stop32" /></linearGradient><linearGradient
       id="deepin-image-viewer-g"
       x1="0.5"
       x2="0.5"
       y1="0.11914"
       y2="1"><stop
         offset="0%"
         stop-color="#67CEFF"
         stop-opacity=".8"
         id="stop35" /><stop
         offset="100%"
         stop-color="#00CDFF"
         id="stop37" /></linearGradient><filter
       id="deepin-image-viewer-h"
       width="1.262"
       height="1.224"
       x="-0.131"
       y="-0.127"
       filterUnits="objectBoundingBox"><feOffset
         dy="-1"
         in="SourceAlpha"
         result="shadowOffsetOuter1"
         id="feOffset40" /><feGaussianBlur
         in="shadowOffsetOuter1"
         result="shadowBlurOuter1"
         stdDeviation="1"
         id="feGaussianBlur42" /><feColorMatrix
         in="shadowBlurOuter1"
         result="shadowMatrixOuter1"
         values="0 0 0 0 0.0924666824   0 0 0 0 0.218528561   0 0 0 0 0.62647192  0 0 0 0.302474869 0"
         id="feColorMatrix44" /><feMerge
         id="feMerge50"><feMergeNode
           in="shadowMatrixOuter1"
           id="feMergeNode46" /><feMergeNode
           in="SourceGraphic"
           id="feMergeNode48" /></feMerge></filter><circle
       id="deepin-image-viewer-i"
       cx="25.02"
       cy="25"
       r="25" /><linearGradient
       id="deepin-image-viewer-m"
       x1="0.5"
       x2="0.5"
       y1="0"
       y2="1"><stop
         offset="0%"
         stop-color="#FFF"
         id="stop54" /><stop
         offset="100%"
         stop-color="#E7E7E7"
         id="stop56" /></linearGradient><rect
       id="deepin-image-viewer-l"
       width="132.25"
       height="114.75"
       x="0.041999999"
       y="0.035"
       rx="12" /><filter
       id="deepin-image-viewer-k"
       width="1.091"
       height="1.105"
       x="-0.045000002"
       y="-0.051999997"
       filterUnits="objectBoundingBox"><feMorphology
         in="SourceAlpha"
         operator="dilate"
         radius="1"
         result="shadowSpreadOuter1"
         id="feMorphology60" /><feOffset
         in="shadowSpreadOuter1"
         result="shadowOffsetOuter1"
         id="feOffset62" /><feGaussianBlur
         in="shadowOffsetOuter1"
         result="shadowBlurOuter1"
         stdDeviation="1"
         id="feGaussianBlur64" /><feColorMatrix
         in="shadowBlurOuter1"
         values="0 0 0 0 0   0 0 0 0 0   0 0 0 0 0  0 0 0 0.05 0"
         id="feColorMatrix66" /></filter><linearGradient
       id="deepin-image-viewer-o"
       x1="0.5"
       x2="0.5"
       y1="1"
       y2="0.01926"><stop
         offset="0%"
         stop-color="#4068AD"
         id="stop69" /><stop
         offset="100%"
         stop-color="#352E86"
         id="stop71" /></linearGradient><rect
       id="deepin-image-viewer-n"
       width="119.063"
       height="82.968002"
       x="0"
       y="0"
       rx="8" /><linearGradient
       id="deepin-image-viewer-q"
       x1="0.49803001"
       x2="0.41314"
       y1="0.35865003"
       y2="0.68849999"><stop
         offset="0%"
         stop-color="#40D0D5"
         id="stop75" /><stop
         offset="47.667%"
         stop-color="#2A7ECA"
         id="stop77" /><stop
         offset="100%"
         stop-color="#332075"
         id="stop79" /></linearGradient><linearGradient
       id="deepin-image-viewer-r"
       x1="0.5"
       x2="0.5"
       y1="0.11914"
       y2="1"><stop
         offset="0%"
         stop-color="#32BEFF"
         stop-opacity=".8"
         id="stop82" /><stop
         offset="100%"
         stop-color="#00CDFF"
         id="stop84" /></linearGradient><radialGradient
       id="deepin-image-viewer-u"
       cx="0.5"
       cy="0.5"
       r="0.55707002"
       fx="0.5"
       fy="0.5"><stop
         offset="0%"
         stop-color="#01001F"
         stop-opacity=".036"
         id="stop87" /><stop
         offset="81.152%"
         stop-color="#000636"
         stop-opacity=".219"
         id="stop89" /><stop
         offset="100%"
         stop-color="#01003C"
         stop-opacity=".688"
         id="stop91" /></radialGradient><circle
       id="deepin-image-viewer-t"
       cx="32.5"
       cy="32.75"
       r="25" /><filter
       id="deepin-image-viewer-s"
       width="1.54"
       height="1.54"
       x="-0.27000001"
       y="-0.27000001"
       filterUnits="objectBoundingBox"><feOffset
         in="SourceAlpha"
         result="shadowOffsetOuter1"
         id="feOffset95" /><feGaussianBlur
         in="shadowOffsetOuter1"
         result="shadowBlurOuter1"
         stdDeviation="4.5"
         id="feGaussianBlur97" /><feComposite
         in="shadowBlurOuter1"
         in2="SourceAlpha"
         operator="out"
         result="shadowBlurOuter1"
         id="feComposite99" /><feColorMatrix
         in="shadowBlurOuter1"
         values="0 0 0 0 0.279134909   0 0 0 0 0.446591113   0 0 0 0 1  0 0 0 1 0"
         id="feColorMatrix101" /></filter><radialGradient
       id="deepin-image-viewer-v"
       cx="0.20808001"
       cy="0.86400002"
       r="0.74745005"
       fx="0.20808001"
       fy="0.86400002"
       gradientTransform="matrix(0.4608,-0.86004,1.0475,0.68809,-0.793,0.448)"><stop
         offset=".037%"
         stop-color="#C0A8FF"
         stop-opacity=".515"
         id="stop104" /><stop
         offset="100%"
         stop-color="#B385FF"
         stop-opacity="0"
         id="stop106" /></radialGradient><linearGradient
       inkscape:collect="always"
       xlink:href="#linearGradient996"
       id="linearGradient998"
       x1="-314.12918"
       y1="-45.103275"
       x2="-315.44922"
       y2="17.671322"
       gradientUnits="userSpaceOnUse"
       gradientTransform="translate(195.19445,24.854549)" /><linearGradient
       inkscape:collect="always"
       xlink:href="#linearGradient1008"
       id="linearGradient1010"
       x1="-116.36765"
       y1="-11.068101"
       x2="-115.88184"
       y2="30.672022"
       gradientUnits="userSpaceOnUse" /><linearGradient
       inkscape:collect="always"
       xlink:href="#linearGradient1021"
       id="linearGradient1023"
       x1="-123.15211"
       y1="24.243876"
       x2="-118.73267"
       y2="85.414604"
       gradientUnits="userSpaceOnUse"
       gradientTransform="translate(-91.660215,-4.4104287)" /><linearGradient
       inkscape:collect="always"
       xlink:href="#linearGradient1029"
       id="linearGradient1031"
       x1="-102.25051"
       y1="27.695517"
       x2="-87.859665"
       y2="44.378441"
       gradientUnits="userSpaceOnUse"
       gradientTransform="translate(-90.701426,-3.8351554)" /><radialGradient
       inkscape:collect="always"
       xlink:href="#linearGradient1053"
       id="radialGradient1055"
       cx="-165.15254"
       cy="49.491524"
       fx="-165.15254"
       fy="49.491524"
       r="25.084745"
       gradientUnits="userSpaceOnUse" /><linearGradient
       inkscape:collect="always"
       xlink:href="#linearGradient1070"
       id="linearGradient1072"
       x1="-151.31525"
       y1="21.966101"
       x2="-165.15932"
       y2="46.372879"
       gradientUnits="userSpaceOnUse" /><linearGradient
       inkscape:collect="always"
       xlink:href="#linearGradient1080"
       id="linearGradient1082"
       x1="-171.38306"
       y1="69.966103"
       x2="-162.15569"
       y2="51.024902"
       gradientUnits="userSpaceOnUse" /><radialGradient
       inkscape:collect="always"
       xlink:href="#linearGradient1092"
       id="radialGradient1094"
       cx="-165.3443"
       cy="49.683281"
       fx="-165.3443"
       fy="49.683281"
       r="33.713844"
       gradientUnits="userSpaceOnUse" /><filter
       id="deepin-image-viewer-a-0"
       width="1.303"
       height="1.325"
       x="-0.17200001"
       y="-0.14"
       filterUnits="objectBoundingBox"><feOffset
         dy="2"
         in="SourceAlpha"
         result="shadowOffsetOuter1"
         id="feOffset2-6" /><feGaussianBlur
         in="shadowOffsetOuter1"
         result="shadowBlurOuter1"
         stdDeviation="3"
         id="feGaussianBlur4-3" /><feComposite
         in="shadowBlurOuter1"
         in2="SourceAlpha"
         operator="out"
         result="shadowBlurOuter1"
         id="feComposite6-2" /><feColorMatrix
         in="shadowBlurOuter1"
         result="shadowMatrixOuter1"
         values="0 0 0 0 0   0 0 0 0 0   0 0 0 0 0  0 0 0 0.2 0"
         id="feColorMatrix8-0" /><feMerge
         id="feMerge14-6"><feMergeNode
           in="shadowMatrixOuter1"
           id="feMergeNode10-1" /><feMergeNode
           in="SourceGraphic"
           id="feMergeNode12-5" /></feMerge></filter><rect
       id="deepin-image-viewer-c-5"
       width="98.25"
       height="67.5"
       x="0.245"
       y="0.191"
       rx="8" /><filter
       id="deepin-image-viewer-h-5"
       width="1.262"
       height="1.224"
       x="-0.131"
       y="-0.127"
       filterUnits="objectBoundingBox"><feOffset
         dy="-1"
         in="SourceAlpha"
         result="shadowOffsetOuter1"
         id="feOffset40-2" /><feGaussianBlur
         in="shadowOffsetOuter1"
         result="shadowBlurOuter1"
         stdDeviation="1"
         id="feGaussianBlur42-5" /><feColorMatrix
         in="shadowBlurOuter1"
         result="shadowMatrixOuter1"
         values="0 0 0 0 0.0924666824   0 0 0 0 0.218528561   0 0 0 0 0.62647192  0 0 0 0.302474869 0"
         id="feColorMatrix44-4" /><feMerge
         id="feMerge50-7"><feMergeNode
           in="shadowMatrixOuter1"
           id="feMergeNode46-4" /><feMergeNode
           in="SourceGraphic"
           id="feMergeNode48-4" /></feMerge></filter><circle
       id="deepin-image-viewer-i-3"
       cx="25.02"
       cy="25"
       r="25" /><rect
       id="deepin-image-viewer-l-8"
       width="132.25"
       height="114.75"
       x="0.041999999"
       y="0.035"
       rx="12" /><filter
       id="deepin-image-viewer-k-6"
       width="1.091"
       height="1.105"
       x="-0.045000002"
       y="-0.051999997"
       filterUnits="objectBoundingBox"><feMorphology
         in="SourceAlpha"
         operator="dilate"
         radius="1"
         result="shadowSpreadOuter1"
         id="feMorphology60-8" /><feOffset
         in="shadowSpreadOuter1"
         result="shadowOffsetOuter1"
         id="feOffset62-8" /><feGaussianBlur
         in="shadowOffsetOuter1"
         result="shadowBlurOuter1"
         stdDeviation="1"
         id="feGaussianBlur64-4" /><feColorMatrix
         in="shadowBlurOuter1"
         values="0 0 0 0 0   0 0 0 0 0   0 0 0 0 0  0 0 0 0.05 0"
         id="feColorMatrix66-3" /></filter><rect
       id="deepin-image-viewer-n-9"
       width="119.063"
       height="82.968002"
       x="0"
       y="0"
       rx="8" /><radialGradient
       id="deepin-image-viewer-u-2"
       cx="0.5"
       cy="0.5"
       r="0.55707002"
       fx="0.5"
       fy="0.5"><stop
         offset="0%"
         stop-color="#01001F"
         stop-opacity=".036"
         id="stop87-6" /><stop
         offset="81.152%"
         stop-color="#000636"
         stop-opacity=".219"
         id="stop89-6" /><stop
         offset="100%"
         stop-color="#01003C"
         stop-opacity=".688"
         id="stop91-4" /></radialGradient><circle
       id="deepin-image-viewer-t-9"
       cx="32.5"
       cy="32.75"
       r="25" /><filter
       id="deepin-image-viewer-s-5"
       width="1.54"
       height="1.54"
       x="-0.27000001"
       y="-0.27000001"
       filterUnits="objectBoundingBox"><feOffset
         in="SourceAlpha"
         result="shadowOffsetOuter1"
         id="feOffset95-0" /><feGaussianBlur
         in="shadowOffsetOuter1"
         result="shadowBlurOuter1"
         stdDeviation="4.5"
         id="feGaussianBlur97-4" /><feComposite
         in="shadowBlurOuter1"
         in2="SourceAlpha"
         operator="out"
         result="shadowBlurOuter1"
         id="feComposite99-8" /><feColorMatrix
         in="shadowBlurOuter1"
         values="0 0 0 0 0.279134909   0 0 0 0 0.446591113   0 0 0 0 1  0 0 0 1 0"
         id="feColorMatrix101-7" /></filter><radialGradient
       id="deepin-image-viewer-v-1"
       cx="0.20808001"
       cy="0.86400002"
       r="0.74745005"
       fx="0.20808001"
       fy="0.86400002"
       gradientTransform="matrix(0.4608,-0.86004,1.0475,0.68809,-0.793,0.448)"><stop
         offset=".037%"
         stop-color="#C0A8FF"
         stop-opacity=".515"
         id="stop104-7" /><stop
         offset="100%"
         stop-color="#B385FF"
         stop-opacity="0"
         id="stop106-2" /></radialGradient><filter
       style="color-interpolation-filters:sRGB"
       inkscape:label="Drop Shadow"
       id="filter46271"
       x="-0.054172551"
       y="-0.063131938"
       width="1.1534889"
       height="1.1788738"><feFlood
         flood-opacity="0.498039"
         flood-color="rgb(0,0,0)"
         result="flood"
         id="feFlood46261" /><feComposite
         in="flood"
         in2="SourceGraphic"
         operator="in"
         result="composite1"
         id="feComposite46263" /><feGaussianBlur
         in="composite1"
         stdDeviation="3"
         result="blur"
         id="feGaussianBlur46265" /><feOffset
         dx="6"
         dy="6"
         result="offset"
         id="feOffset46267" /><feComposite
         in="SourceGraphic"
         in2="offset"
         operator="over"
         result="composite2"
         id="feComposite46269" /></filter></defs><g
     inkscape:label="Layer 1"
     inkscape:groupmode="layer"
     id="layer1"
     style="filter:url(#filter46271)"
     transform="translate(4.2667329,-36.986127)"><g
       id="g1182"
       transform="matrix(1.1937049,0,0,1.1937049,11.340701,279.64439)"
       inkscape:export-filename="icon_new.png"
       inkscape:export-xdpi="195.69534"
       inkscape:export-ydpi="195.69534"><g
         transform="translate(194.8259,-130.01177)"
         id="g1113"><rect
           style="display:inline;opacity:1;fill:url(#linearGradient998);fill-opacity:1;stroke:none;stroke-width:1.5;stroke-linecap:round;stroke-miterlimit:4;stroke-dasharray:none;stroke-opacity:1"
           id="rect990"
           width="84.647736"
           height="72.57428"
           x="-156.77959"
           y="-25.182457"
           rx="10.08113"
           transform="rotate(-8.2058094)"
           ry="10.08113" /><rect
           ry="6.7807002"
           transform="rotate(-7.8172658)"
           rx="6.7807002"
           y="-19.788671"
           x="-151.49904"
           height="52.699879"
           width="75.703102"
           id="rect1000"
           style="display:inline;opacity:1;fill:url(#linearGradient1010);fill-opacity:1;stroke:none;stroke-width:1.5;stroke-linecap:round;stroke-miterlimit:4;stroke-dasharray:none;stroke-opacity:1" /><g
           id="g1043"
           transform="translate(96.262401,-2.8763666)"><path
             id="rect1012"
             d="m -213.36133,13.181641 c -2.65912,-0.08197 -5.54159,1.655755 -6.96679,4.152343 l -20.51563,35.939454 c 1.445,1.426179 3.50772,2.191303 5.68359,1.892578 l 60.05664,-8.246094 -34.92773,-32.398438 c -0.95803,-0.888617 -2.12138,-1.302583 -3.33008,-1.339843 z"
             style="opacity:1;fill:url(#linearGradient1023);fill-opacity:1;stroke:none;stroke-width:1.5;stroke-linecap:round;stroke-miterlimit:4;stroke-dasharray:none;stroke-opacity:1"
             inkscape:connector-curvature="0" /><path
             id="path1015"
             d="m -192.45898,18.935547 c -2.65913,-0.08197 -5.54355,1.653802 -6.96875,4.150391 l -16.83008,29.484374 42.66211,-5.857421 c 3.37236,-0.462992 5.80175,-3.305194 5.84961,-6.603516 l -21.38477,-19.835937 c -0.95803,-0.888618 -2.11943,-1.30063 -3.32812,-1.337891 z"
             style="opacity:1;fill:url(#linearGradient1031);fill-opacity:1;stroke:none;stroke-width:1.5;stroke-linecap:round;stroke-miterlimit:4;stroke-dasharray:none;stroke-opacity:1"
             inkscape:connector-curvature="0" /></g><circle
           style="opacity:1;fill:#ffffff;fill-opacity:1;stroke:none;stroke-width:1.5;stroke-linecap:round;stroke-miterlimit:4;stroke-dasharray:none;stroke-opacity:1"
           id="path1045"
           cx="-90.847466"
           cy="1.8983052"
           r="4.0677967" /></g><g
         transform="translate(280.36237,-131.1645)"
         id="g1105"
         style="display:inline"><circle
           r="33.713844"
           cy="49.683281"
           cx="-165.3443"
           id="circle1084"
           style="opacity:0.06;fill:url(#radialGradient1094);fill-opacity:1;stroke:none;stroke-width:2.15583;stroke-linecap:round;stroke-miterlimit:4;stroke-dasharray:none;stroke-opacity:1" /><circle
           style="display:inline;opacity:1;fill:url(#radialGradient1055);fill-opacity:1;stroke:none;stroke-width:1.60405;stroke-linecap:round;stroke-miterlimit:4;stroke-dasharray:none;stroke-opacity:1"
           id="path1047"
           cx="-165.15254"
           cy="49.491524"
           r="25.084745" /><circle
           style="display:inline;opacity:1;fill:#5fd6fe;fill-opacity:1;stroke:none;stroke-width:0.8;stroke-linecap:round;stroke-miterlimit:4;stroke-dasharray:none;stroke-opacity:1"
           id="path1057"
           cx="-165.15254"
           cy="49.491524"
           r="19.254236" /><g
           fill="#fafafa"
           transform="matrix(1.9693852,0,0,1.9693852,-177.92538,37.243709)"
           id="g22189"
           style="display:inline;fill:#ffffff;fill-opacity:1"><polygon
             points="10,0 10,2 8.383,2 4.383,10 0,10 0,11 5.06,11 9.002,3 10,3 10,5 13.998,2.5 "
             id="polygon22185"
             style="display:none;fill:#ffffff;fill-opacity:1" /><path
             d="M 7.847,7.655 9.0022768,10 H 10 V 8 L 13.998369,10.5 10,13 V 11 H 8.3828125 L 7.285,8.806 Z M 5.0604141,2 6.094,4.098 5.52,5.275 4.3828125,3 H 0 V 2 Z"
             id="path22187"
             style="display:none;fill:#ffffff;fill-opacity:1" /></g><path
           style="display:inline;fill:#ffffff;fill-opacity:1;stroke-width:0.0842116"
           d="m -157.09858,62.578301 c -0.14178,-0.156612 -0.16532,-0.356676 -0.20253,-1.722027 l -0.0421,-1.544831 -1.93687,-0.03604 c -1.38239,-0.02572 -2.12972,-0.07699 -2.61056,-0.179081 -0.37053,-0.07867 -0.90107,-0.242294 -1.17896,-0.36361 -0.2779,-0.121316 -0.82738,-0.430086 -1.22107,-0.686156 -0.39369,-0.256071 -1.03371,-0.769753 -1.42227,-1.141518 -0.38856,-0.371764 -0.90251,-0.922253 -1.14212,-1.22331 -0.23959,-0.301056 -0.46338,-0.593851 -0.49728,-0.650655 -0.0368,-0.06177 0.22203,-0.535607 0.64417,-1.178963 0.3882,-0.591625 0.80668,-1.24621 0.92995,-1.454634 0.12328,-0.208423 0.29443,-0.469193 0.38033,-0.579487 0.1562,-0.200537 0.1562,-0.200537 0.75175,0.602299 0.32755,0.44156 0.84045,1.062335 1.13977,1.379499 0.29932,0.317164 0.80426,0.753883 1.12208,0.970487 0.40603,0.276718 0.74845,0.433223 1.15151,0.526323 0.41913,0.09681 1.02395,0.132497 2.24531,0.132497 h 1.67165 l 0.0284,-1.773349 c 0.0284,-1.77335 0.0284,-1.77335 0.23895,-1.934995 0.11579,-0.0889 0.29196,-0.162488 0.3915,-0.163517 0.0996,-10e-4 0.39046,0.140234 0.64648,0.31392 0.25601,0.173687 1.40876,1.099346 2.56166,2.057022 1.1529,0.957674 2.31165,1.916757 2.57502,2.131293 0.26337,0.214536 0.53551,0.499642 0.60477,0.633568 0.0693,0.133926 0.12567,0.349596 0.12536,0.479266 -3.3e-4,0.129671 -0.0667,0.335767 -0.14737,0.457994 -0.0808,0.122225 -0.56367,0.571839 -1.07314,0.99914 -0.50948,0.427301 -1.04014,0.876779 -1.17925,0.998839 -0.1391,0.12206 -0.94498,0.80076 -1.79085,1.508224 -0.84588,0.707462 -1.66049,1.361014 -1.81028,1.452335 -0.14977,0.09132 -0.38961,0.166182 -0.53295,0.166355 -0.15828,1.68e-4 -0.32364,-0.06928 -0.42106,-0.176884 z m -22.70477,-3.390283 c -0.0793,-0.0602 -0.18345,-0.21304 -0.23158,-0.33965 -0.0482,-0.126611 -0.0875,-0.77156 -0.0875,-1.433222 0,-0.661661 0.0404,-1.318781 0.0897,-1.460268 0.0532,-0.152623 0.18163,-0.293354 0.31579,-0.346024 0.13114,-0.05149 1.14578,-0.0996 2.41562,-0.114551 2.18949,-0.02578 2.18949,-0.02578 2.69477,-0.289234 0.2779,-0.144903 0.76229,-0.499318 1.07643,-0.787589 0.31414,-0.288271 0.80677,-0.811764 1.09475,-1.163319 0.28797,-0.351554 0.97833,-1.33066 1.53413,-2.17579 0.55579,-0.845129 1.38831,-2.116188 1.85004,-2.824574 0.46173,-0.708385 1.18145,-1.740372 1.5994,-2.293303 0.41794,-0.552931 1.13278,-1.380567 1.58853,-1.839189 0.50444,-0.507631 1.12437,-1.025118 1.58457,-1.322729 0.4449,-0.287713 1.0571,-0.592211 1.48782,-0.740019 0.43757,-0.150158 1.08016,-0.289153 1.59804,-0.34566 0.4764,-0.05198 1.54358,-0.09451 2.37149,-0.09451 h 1.50531 l 0.0285,-1.733874 c 0.028,-1.704477 0.0319,-1.736603 0.22734,-1.894762 0.10935,-0.08849 0.27987,-0.159298 0.37895,-0.157357 0.0991,0.002 0.29981,0.06826 0.44607,0.147371 0.14625,0.07912 1.52255,1.183372 3.05842,2.453911 1.53587,1.27054 2.84675,2.414988 2.91307,2.54322 0.0663,0.128231 0.12056,0.331649 0.12056,0.452041 0,0.120391 -0.0549,0.325021 -0.12195,0.454734 -0.0671,0.129713 -1.34605,1.259554 -2.84214,2.510755 -1.49611,1.251202 -2.85283,2.355697 -3.01493,2.454432 -0.16211,0.09874 -0.41203,0.179663 -0.55538,0.179835 -0.15823,1.68e-4 -0.32366,-0.06929 -0.42106,-0.176824 -0.14385,-0.158847 -0.1634,-0.346622 -0.18934,-1.818327 l -0.0289,-1.641188 -1.95006,0.02926 c -1.9085,0.02864 -1.96031,0.03406 -2.43164,0.254553 -0.26488,0.12391 -0.66278,0.362145 -0.88423,0.529409 -0.22144,0.167263 -0.68002,0.615169 -1.01907,0.995344 -0.33905,0.380176 -0.89876,1.076135 -1.2438,1.546573 -0.34505,0.47044 -1.13569,1.652686 -1.757,2.627215 -0.6213,0.974528 -1.32817,2.067537 -1.57083,2.428909 -0.24265,0.36137 -0.66616,0.953968 -0.94113,1.316883 -0.27497,0.362915 -0.70742,0.893448 -0.961,1.178963 -0.2536,0.285513 -0.73165,0.758308 -1.06235,1.050652 -0.33071,0.292345 -0.87312,0.696567 -1.20536,0.898273 -0.33223,0.201705 -0.88265,0.46808 -1.22315,0.591941 -0.34049,0.123862 -0.96013,0.277913 -1.37698,0.342338 -0.48887,0.07555 -1.46038,0.116719 -2.73688,0.115966 -1.492,-8.73e-4 -2.01442,-0.0281 -2.12303,-0.110617 z m 8.02633,-10.665101 c -0.29639,-0.414716 -0.78599,-1.029456 -1.088,-1.36609 -0.30201,-0.336634 -0.81742,-0.8051 -1.14535,-1.041038 -0.32792,-0.235937 -0.76676,-0.478392 -0.97518,-0.538789 -0.24203,-0.07013 -1.16168,-0.128128 -2.54526,-0.160504 -2.1095,-0.04936 -2.17134,-0.05572 -2.35793,-0.242611 -0.18508,-0.185384 -0.19161,-0.243353 -0.19161,-1.70235 0,-1.33921 0.0171,-1.527468 0.15073,-1.660736 0.13822,-0.137829 0.35494,-0.149566 2.61056,-0.141377 2.22045,0.0081 2.52339,0.02618 3.1129,0.186138 0.35918,0.09747 0.91909,0.308268 1.24423,0.46845 0.32515,0.160181 0.89894,0.512213 1.27509,0.782295 0.37615,0.27008 0.99856,0.832111 1.38315,1.248959 0.38459,0.416848 0.83798,0.936783 1.00753,1.155414 l 0.30828,0.397508 -0.90572,1.413041 c -0.49815,0.777172 -0.97604,1.491273 -1.06197,1.586891 -0.086,0.09562 -0.15624,0.218778 -0.15624,0.273687 0,0.05491 -0.0284,0.09878 -0.0631,0.09749 -0.0347,-0.0013 -0.30565,-0.341661 -0.60205,-0.756377 z"
           id="path35223" /><path
           style="display:none;opacity:1;fill:#c1f2ff;fill-opacity:1;stroke:none;stroke-width:0.8;stroke-linecap:round;stroke-miterlimit:4;stroke-dasharray:none;stroke-opacity:1"
           d="m -145.89831,49.491524 c 0,5.316909 -2.1551,10.130467 -5.63943,13.614799 -3.48433,3.484331 -8.29789,5.639435 -13.6148,5.639437 l 13.6148,-32.869035 c 3.48433,3.484331 5.63943,8.29789 5.63943,13.614799 z"
           id="circle1061"
           inkscape:connector-curvature="0"
           sodipodi:nodetypes="ssccs" /><circle
           r="19.254236"
           cy="49.491524"
           cx="-165.15254"
           id="circle1064"
           style="display:inline;opacity:1;fill:url(#linearGradient1072);fill-opacity:1;stroke:none;stroke-width:0.8;stroke-linecap:round;stroke-miterlimit:4;stroke-dasharray:none;stroke-opacity:1"
           sodipodi:insensitive="true" /><circle
           r="19.254236"
           cy="49.491524"
           cx="-165.15254"
           id="circle1059"
           style="display:inline;opacity:1;fill:none;fill-opacity:1;stroke:none;stroke-width:0.8;stroke-linecap:round;stroke-miterlimit:4;stroke-dasharray:none;stroke-opacity:1"
           sodipodi:insensitive="true" /><circle
           style="display:none;opacity:0.445596;fill:url(#linearGradient1082);fill-opacity:1;stroke:none;stroke-width:0.8;stroke-linecap:round;stroke-miterlimit:4;stroke-dasharray:none;stroke-opacity:1"
           id="circle1074"
           cx="-165.15254"
           cy="49.491524"
           r="19.254236"
           sodipodi:insensitive="true" /><circle
           style="display:inline;opacity:1;fill:none;fill-opacity:1;stroke:none;stroke-width:0.8;stroke-linecap:round;stroke-miterlimit:4;stroke-dasharray:none;stroke-opacity:1"
           id="circle52174"
           cx="-165.15254"
           cy="49.491524"
           r="19.254236"
           sodipodi:insensitive="true" /></g></g></g></svg>
